inDegrees=yes
name=ik_data_2024_11_07_19_01
DataType=double
version=3
OpenSimVersion=4.5.1
endheader
time	pelvis_tilt	pelvis_list	pelvis_rotation	pelvis_tx	pelvis_ty	pelvis_tz	hip_flexion_r	hip_adduction_r	hip_rotation_r	knee_angle_r	knee_angle_r_beta	ankle_angle_r	subtalar_angle_r	mtp_angle_r	hip_flexion_l	hip_adduction_l	hip_rotation_l	knee_angle_l	knee_angle_l_beta	ankle_angle_l	subtalar_angle_l	mtp_angle_l	lumbar_extension	lumbar_bending	lumbar_rotation	arm_flex_r	arm_add_r	arm_rot_r	elbow_flex_r	pro_sup_r	wrist_flex_r	wrist_dev_r	arm_flex_l	arm_add_l	arm_rot_l	elbow_flex_l	pro_sup_l	wrist_flex_l	wrist_dev_l
15.07536	-0.4311824797079163	0.2912086372373101	-9.649745144068559	0	0.9399999999999999	0	7.218685512083427	-2.953996322219857	-1.875209381910801	5.266462729128185	0.09191711455685311	-5.020110322706136	0	0	0.7274961138800845	0.2090354432796033	1.494039986133619	0.4863961633528529	0.008489214519575464	-5.020110322706136	0	0	0	0	0	0	-5.922281587560128	0	64.49913908852692	47.17143858455387	0	0	0	-5.922281587560128	0	64.49913908852692	47.17143858455387	0	0
15.13141	-0.3741553309527342	0.3922865040658535	-9.086295245151376	0	0.9399999999999999	0	8.757496154661373	-2.783944374943163	-2.592770078243628	6.185700358811573	0.1079608378030566	-5.020074340057418	0	0	0.6738386857442469	0.3226220296233192	2.061564854171039	0.4726885521786506	0.008249971572002468	-5.020074340057418	0	0	0	0	0	0	-5.924119826560197	0	64.50334490181189	47.16907626985289	0	0	0	-5.924119826560197	0	64.50334490181189	47.16907626985289	0	0
15.18514	-0.3683675382802418	0.2338044132389626	-10.00372472393891	0	0.9399999999999999	0	10.51323466863227	-2.11624128828707	-1.929405636079314	7.463788849332268	0.130267690094487	-5.020012197453805	0	0	0.6670896024989129	0.1619927510124738	1.137021394302799	0.5113941319950123	0.008925511378691442	-5.020012197453805	0	0	0	0	0	0	-5.927294687092491	0	64.51061173805512	47.16499450875141	0	0	0	-5.927294687092491	0	64.51061173805512	47.16499450875141	0	0
15.24459	-0.2389560604478729	0.2182516942519677	-10.00070712610052	0	0.9399999999999999	0	11.98327447930861	-1.724589940127556	-2.161191160740819	8.672111162280638	0.1513568928807494	-5.019970668416779	0	0	0.5248993396408508	0.1702878375980937	1.142956154231922	0.4918597748835044	0.008584572529835259	-5.019970668416779	0	0	0	0	0	0	-5.929423213354053	0	64.51548078196498	47.1622633899586	0	0	0	-5.929423213354053	0	64.51548078196498	47.1622633899586	0	0
15.25497	-0.06343991714476241	0.2669549797367981	-9.770391738093233	0	0.9399999999999999	0	13.61643161259805	-1.286602830137018	-2.629939956407517	9.719653968838273	0.1696399639107622	-5.019674458507446	0	0	0.3768826213882657	0.2423335369177754	1.365789644597496	0.5208214968620509	0.009090049935408104	-5.019674458507446	0	0	0	0	0	0	-5.957076774914772	0	64.5690323789068	47.13946772673662	0	0	0	-5.957076774914772	0	64.5690323789068	47.13946772673662	0	0
15.31346	0.2528624207696452	0.3089713191262021	-9.586301170782388	0	0.9399999999999999	0	15.2002934856636	-1.100550375924794	-3.001805259489129	10.76072806335072	0.187810134617223	-5.019378482824865	0	0	0.0650527843443882	0.3387309207554365	1.550728516107351	0.510311747454709	0.008906620204690465	-5.019378482824865	0	0	0	0	0	0	-5.98468636807922	0	64.62251503896098	47.11669340507354	0	0	0	-5.98468636807922	0	64.62251503896098	47.11669340507354	0	0
15.36358	0.6195256861588797	0.2024678705310333	-10.14980357099309	0	0.9399999999999999	0	16.86440861552812	-0.4455869301951157	-2.721654584507129	11.85753680758521	0.2069530584687793	-5.019078474508755	0	0	-0.3029872522404021	0.3002794676326695	0.9872913692037991	0.5232655087121485	0.009132705989150065	-5.019078474508755	0	0	0	0	0	0	-6.013244122065656	0	64.67759568184398	47.0934541802463	0	0	0	-6.013244122065656	0	64.67759568184398	47.0934541802463	0	0
15.43195	0.9267294312821459	0.1560422282506748	-10.36316826477606	0	0.9399999999999999	0	18.57864093099251	0.09001729904134903	-2.813126799300981	13.08561810372176	0.2283871205685216	-5.018777136824241	0	0	-0.6146491578925508	0.3112990331984212	0.7752240990979054	0.5203387796130591	0.009081624930057026	-5.018777136824241	0	0	0	0	0	0	-6.042261294140581	0	64.73345359501597	47.07001020703463	0	0	0	-6.042261294140581	0	64.73345359501597	47.07001020703463	0	0
15.43593	1.259681618154833	0.05648864625178986	-10.88768501642596	0	0.9399999999999999	0	20.01271204651196	0.6221771264221786	-2.568086888252046	14.14578191137457	0.246890469622543	-5.018733307623768	0	0	-0.9668017054255058	0.2874970575302919	0.2569434170684282	0.4976698351492675	0.008685977211212123	-5.018733307623768	0	0	0	0	0	0	-6.044623214155155	0	64.73880691646977	47.06707416580605	0	0	0	-6.044623214155155	0	64.73880691646977	47.06707416580605	0	0
15.49374	1.545538656004776	-0.007761834375848559	-11.2491829527085	0	0.9399999999999999	0	21.36060270075941	1.017660889884406	-2.429948039208895	14.65693240304397	0.2558117286753618	-5.018537468869774	0	0	-1.244792703669606	0.2917006573095919	-0.1095956498579267	0.5205980594695127	0.009086150217236241	-5.018537468869774	0	0	0	0	0	0	-6.062956107048665	0	64.77439259985223	47.05193725929288	0	0	0	-6.062956107048665	0	64.77439259985223	47.05193725929288	0	0
15.54463	1.686938217969777	-0.05572736018157122	-11.45043707979803	0	0.9399999999999999	0	22.78912738469827	1.419747920641388	-2.482751057040455	15.50619956222135	0.2706342368320658	-5.018496208600384	0	0	-1.410903385775666	0.2743863495181835	-0.3110252632101562	0.506444301784981	0.008839120544111713	-5.018496208600384	0	0	0	0	0	0	-6.065201050773809	0	64.77947315464523	47.04916264387918	0	0	0	-6.065201050773809	0	64.77947315464523	47.04916264387918	0	0
15.61371	1.91032865411614	-0.2823501773307842	-12.6255394828212	0	0.9399999999999999	0	24.21433966042857	2.493450153691901	-1.77686363607236	16.4645919210414	0.2873613390194307	-5.018465168125828	0	0	-1.692612035566591	0.1278569478195227	-1.488495686724273	0.4657131399998237	0.008128227662798228	-5.018465168125828	0	0	0	0	0	0	-6.06690388656864	0	64.78331804523046	47.04707059357109	0	0	0	-6.06690388656864	0	64.78331804523046	47.04707059357109	0	0
15.61592	1.996569776147165	-0.3730611521844719	-13.07679435686327	0	0.9399999999999999	0	25.80303679438983	3.269473411172436	-1.756527640585658	17.31071884696756	0.3021290397666204	-5.018428459682515	0	0	-1.77928907312741	0.06682760036701746	-1.938912181970817	0.4825882941430168	0.00842275466437851	-5.018428459682515	0	0	0	0	0	0	-6.068908611848063	0	64.78785247615238	47.04459820035277	0	0	0	-6.068908611848063	0	64.78785247615238	47.04459820035277	0	0
15.67835	2.190073944523221	-0.3326227657036301	-12.93279016764693	0	0.9399999999999999	0	27.10043145628001	3.425108067403981	-2.13952175406141	18.17167760064577	0.317155604742172	-5.018381120474536	0	0	-1.952492902364687	0.1430988800308597	-1.793052667520896	0.5046366370829968	0.008807570843290006	-5.018381120474536	0	0	0	0	0	0	-6.071495993324088	0	64.79370537237826	47.04140789481959	0	0	0	-6.071495993324088	0	64.79370537237826	47.04140789481959	0	0
15.73188	2.270902382966365	-0.5680545490731141	-14.1611979878297	0	0.9399999999999999	0	28.324251428022	4.708100146914881	-1.404627755334745	18.65818271617503	0.325646720835953	-5.018350127078444	0	0	-2.102064994362941	-0.01345063486092857	-3.026240207660868	0.4750942808379163	0.008291959458016245	-5.018350127078444	0	0	0	0	0	0	-6.073204602272233	0	64.79756119232344	47.03931424862642	0	0	0	-6.073204602272233	0	64.79756119232344	47.03931424862642	0	0
15.7937	2.294077768816954	-0.7172300794469419	-14.9451325424184	0	0.9399999999999999	0	29.74381687527134	5.426123948015613	-1.121017177480511	20.15774257634635	0.3518189777266882	-5.018287492438374	0	0	-2.137807133939177	-0.1317944027092121	-3.81574485036813	0.5142836294325039	0.00897594262270361	-5.018287492438374	0	0	0	0	0	0	-6.076651183149844	0	64.80534747604391	47.03508263689901	0	0	0	-6.076651183149844	0	64.80534747604391	47.03508263689901	0	0
15.79531	2.32544817852371	-0.7378649064794222	-15.06749548705255	0	0.9399999999999999	0	30.93954362714964	5.397453244932238	-1.256476298264774	21.55272000120421	0.3761659267814497	-5.018246404527376	0	0	-2.179588705365417	-0.1384501088003947	-3.935698743543069	0.4929827511777039	0.008604172163590886	-5.018246404527376	0	0	0	0	0	0	-6.078933427062894	0	64.81049132649171	47.03229881808002	0	0	0	-6.078933427062894	0	64.81049132649171	47.03229881808002	0	0
15.85053	2.131955875886278	-0.6220974108005223	-14.45161688860633	0	0.9399999999999999	0	32.48292138138235	4.745118401650314	-1.960225150573208	23.63111616167457	0.4124407829424659	-5.018151181146854	0	0	-1.962716726675734	-0.09550906435951417	-3.320627381313291	0.5072253122087766	0.008852751747499344	-5.018151181146854	0	0	0	0	0	0	-6.084371389236335	0	64.82266687704035	47.02579116663892	0	0	0	-6.084371389236335	0	64.82266687704035	47.02579116663892	0	0
15.90918	1.92975827012973	-0.8379753433462546	-15.61065701781641	0	0.9399999999999999	0	33.74630092594423	5.029922438926971	-1.24574753793285	26.22559208968149	0.4577229302499219	-5.017994824400215	0	0	-1.825217626693818	-0.3142087399568646	-4.487253891973773	0.505970464446226	0.008830850522431551	-5.017994824400215	0	0	0	0	0	0	-6.093194404521559	0	64.84251359223424	47.01512392400299	0	0	0	-6.093194404521559	0	64.84251359223424	47.01512392400299	0	0
